# xmcd
#
# Track frame offsets: 
#        182
#        16600
#        39400
#        58630
#        76240
#        96580
#        116702
#        135557
#        154917
#        172980
#        193455
#        217380
#        235040
#
# Disc length: 3433 seconds
#
# Revision: 2
# Processed by: cddbd v1.5.2PL0 Copyright (c) Steve Scherf et al.
# Submitted via: ExactAudioCopy v0.95b4
#
DISCID=b20d670d
DTITLE=BZN - Sweet Dreams
DYEAR=1993
DGENRE=Pop
TTITLE0=Quiereme Mucho
TTITLE1=Desanya
TTITLE2=Bienvenue
TTITLE3=My Sweet Dream
TTITLE4=Conquistador
TTITLE5=Nights In Argentina
TTITLE6=Kiss And Make Me Glow
TTITLE7=Goodbye My Love, Adieu My Friend
TTITLE8=Do You Remember
TTITLE9=The Queen Of The Country
TTITLE10=Is Everything In Vain
TTITLE11=My Number One
TTITLE12=Desanya (Instrumental)
EXTD=
EXTT0=
EXTT1=
EXTT2=
EXTT3=
EXTT4=
EXTT5=
EXTT6=
EXTT7=
EXTT8=
EXTT9=
EXTT10=
EXTT11=
EXTT12=
PLAYORDER=
